<?xml version="1.0" standalone="no"?>
<!DOCTYPE svg PUBLIC "-//W3C//DTD SVG 20010904//EN"
 "http://www.w3.org/TR/2001/REC-SVG-20010904/DTD/svg10.dtd">
<svg version="1.0" xmlns="http://www.w3.org/2000/svg"
 width="1080.000000pt" height="527.000000pt" viewBox="0 0 1080.000000 527.000000"
 preserveAspectRatio="xMidYMid meet">


<style>
  /* Default (light theme) */
  path {
    fill: black;
  }

  /* Dark theme */
  @media (prefers-color-scheme: dark) {
    path {
      fill: white;
    }
  }
</style>

<g transform="translate(0.000000,527.000000) scale(0.100000,-0.100000)"
fill="#000000" stroke="none">
<path d="M3847 4378 c-9 -29 -24 -78 -33 -108 -23 -77 -40 -131 -52 -160 -26
-65 -36 -112 -25 -118 6 -4 769 -6 1695 -4 925 1 1694 0 1707 -3 20 -5 22 -11
18 -38 -4 -31 -101 -326 -117 -357 -6 -13 -183 -15 -1488 -18 l-1480 -2 -16
-43 c-44 -123 -147 -432 -170 -512 -6 -22 -15 -46 -19 -52 -7 -10 -285 -13
-1338 -13 -1279 0 -1329 -1 -1329 -18 0 -10 15 -36 33 -58 19 -21 52 -67 76
-101 l42 -63 697 0 c669 0 698 -1 728 -19 36 -22 72 -67 104 -128 l22 -43 388
0 c214 0 395 -3 404 -6 9 -3 16 -12 16 -19 0 -12 -123 -395 -171 -530 -11 -33
-36 -112 -56 -175 -19 -63 -46 -144 -59 -180 -12 -36 -35 -103 -50 -150 -46
-143 -140 -419 -179 -524 -20 -55 -35 -111 -33 -125 l3 -26 210 -3 c116 -1
219 0 231 2 17 5 28 29 59 123 21 65 44 132 51 150 8 17 14 36 14 42 0 6 4 19
9 29 9 18 39 105 73 212 11 36 31 93 44 127 13 34 24 69 24 78 0 9 7 31 15 48
16 35 79 225 145 437 61 195 141 431 157 462 l13 28 268 2 267 3 7 48 c10 70
44 132 113 206 63 68 125 148 125 162 0 5 -136 8 -302 8 -167 -1 -309 -1 -316
0 -17 1 -7 74 20 145 11 28 23 67 28 86 4 19 13 47 20 63 l13 27 499 0 499 0
-7 -47 c-3 -27 -10 -52 -14 -58 -10 -15 -63 -162 -120 -335 -87 -262 -127
-347 -219 -469 -87 -113 -179 -194 -296 -256 -128 -69 -170 -83 -318 -104
-114 -16 -122 -19 -129 -42 -4 -13 -15 -51 -24 -84 -9 -33 -31 -105 -49 -160
-45 -140 -58 -192 -50 -204 13 -22 159 -5 315 36 30 7 71 18 90 23 225 58 449
182 592 326 45 46 87 84 93 84 5 0 23 -28 39 -62 61 -132 222 -255 420 -323
203 -69 335 -84 732 -85 298 0 322 1 337 18 10 10 17 26 17 35 0 10 12 45 26
80 14 34 29 80 34 102 5 22 29 99 53 170 25 72 59 175 76 230 17 55 42 129 55
165 13 36 32 92 42 125 10 33 25 66 33 73 11 9 84 12 286 12 l270 0 20 36 c10
19 47 62 82 95 l64 59 713 0 713 0 26 37 c13 21 55 71 91 111 36 40 66 77 66
82 0 7 -596 10 -1654 10 -1491 0 -1656 -2 -1670 -16 -23 -22 -20 -40 13 -87
73 -108 90 -190 55 -277 -9 -23 -15 -43 -12 -45 2 -2 98 -7 214 -10 115 -3
213 -10 218 -15 11 -11 -138 -466 -162 -492 -13 -16 -35 -18 -160 -18 -205 0
-322 21 -449 82 -195 93 -254 304 -164 588 12 36 33 103 48 150 72 231 142
431 155 448 8 9 167 12 732 12 563 0 726 3 738 13 20 15 118 293 118 334 0 6
11 35 24 64 13 30 34 90 46 133 12 44 25 87 30 95 10 22 30 80 39 116 5 17 27
78 50 136 22 58 41 117 41 132 0 38 -23 90 -51 116 l-23 21 -1911 0 -1911 0
-17 -52z"/>
</g>
</svg>
